G75*
%MOIN*%
%OFA0B0*%
%FSLAX24Y24*%
%IPPOS*%
%LPD*%
%AMOC8*
5,1,8,0,0,1.08239X$1,22.5*
%
%ADD10C,0.0190*%
%ADD11R,0.0660X0.0660*%
%ADD12OC8,0.0660*%
%ADD13R,0.0414X0.0336*%
%ADD14R,0.0493X0.0454*%
%ADD15R,0.0198X0.0611*%
%ADD16R,0.0769X0.0808*%
%ADD17R,0.0808X0.0808*%
%ADD18R,0.0611X0.0769*%
D10*
X000813Y002736D03*
X001063Y002736D03*
X001313Y002736D03*
X001563Y002736D03*
X001813Y002736D03*
X002063Y002736D03*
X002313Y002736D03*
X002563Y002736D03*
X002813Y002736D03*
X003063Y002736D03*
X003313Y002736D03*
X003563Y002736D03*
D11*
X000688Y006229D03*
D12*
X000688Y005229D03*
X000688Y004229D03*
X000688Y003229D03*
X003688Y003229D03*
X003688Y004229D03*
X003688Y005229D03*
X003688Y006229D03*
D13*
X002813Y006256D03*
X002813Y005744D03*
X002813Y005356D03*
X002813Y004844D03*
X002125Y004844D03*
X002125Y005356D03*
X001531Y005356D03*
X001531Y004844D03*
D14*
X001330Y005939D03*
X002000Y005939D03*
D15*
X001932Y002593D03*
X002188Y002593D03*
X002443Y002593D03*
X002699Y002593D03*
X001676Y002593D03*
D16*
X000613Y001550D03*
X003762Y001550D03*
D17*
X002688Y001550D03*
X001688Y001550D03*
D18*
X001393Y003300D03*
X001393Y004100D03*
X002732Y004100D03*
X002732Y003300D03*
M02*
