G75*
%MOIN*%
%OFA0B0*%
%FSLAX24Y24*%
%IPPOS*%
%LPD*%
%AMOC8*
5,1,8,0,0,1.08239X$1,22.5*
%
%ADD10C,0.0190*%
%ADD11R,0.0454X0.0454*%
%ADD12C,0.0062*%
%ADD13R,0.0660X0.0660*%
%ADD14OC8,0.0660*%
%ADD15C,0.0136*%
%ADD16R,0.0336X0.0414*%
D10*
X000813Y002736D03*
X001063Y002736D03*
X001313Y002736D03*
X001563Y002736D03*
X001813Y002736D03*
X002063Y002736D03*
X002313Y002736D03*
X002563Y002736D03*
X002813Y002736D03*
X003063Y002736D03*
X003313Y002736D03*
X003563Y002736D03*
D11*
X002188Y004300D03*
X001435Y005641D03*
X001435Y006310D03*
X003010Y006310D03*
X003010Y005641D03*
D12*
X002639Y005175D02*
X002639Y004921D01*
X002523Y004921D01*
X002523Y005175D01*
X002639Y005175D01*
X002639Y004982D02*
X002523Y004982D01*
X002523Y005043D02*
X002639Y005043D01*
X002639Y005104D02*
X002523Y005104D01*
X002523Y005165D02*
X002639Y005165D01*
X002326Y005175D02*
X002326Y004921D01*
X002326Y005175D02*
X002442Y005175D01*
X002442Y004921D01*
X002326Y004921D01*
X002326Y004982D02*
X002442Y004982D01*
X002442Y005043D02*
X002326Y005043D01*
X002326Y005104D02*
X002442Y005104D01*
X002442Y005165D02*
X002326Y005165D01*
X002246Y005175D02*
X002246Y004921D01*
X002130Y004921D01*
X002130Y005175D01*
X002246Y005175D01*
X002246Y004982D02*
X002130Y004982D01*
X002130Y005043D02*
X002246Y005043D01*
X002246Y005104D02*
X002130Y005104D01*
X002130Y005165D02*
X002246Y005165D01*
X002049Y005175D02*
X002049Y004921D01*
X001933Y004921D01*
X001933Y005175D01*
X002049Y005175D01*
X002049Y004982D02*
X001933Y004982D01*
X001933Y005043D02*
X002049Y005043D01*
X002049Y005104D02*
X001933Y005104D01*
X001933Y005165D02*
X002049Y005165D01*
X001852Y005175D02*
X001852Y004921D01*
X001736Y004921D01*
X001736Y005175D01*
X001852Y005175D01*
X001852Y004982D02*
X001736Y004982D01*
X001736Y005043D02*
X001852Y005043D01*
X001852Y005104D02*
X001736Y005104D01*
X001736Y005165D02*
X001852Y005165D01*
X001566Y004636D02*
X001312Y004636D01*
X001312Y004752D01*
X001566Y004752D01*
X001566Y004636D01*
X001566Y004697D02*
X001312Y004697D01*
X001312Y004439D02*
X001566Y004439D01*
X001312Y004439D02*
X001312Y004555D01*
X001566Y004555D01*
X001566Y004439D01*
X001566Y004500D02*
X001312Y004500D01*
X001312Y004242D02*
X001566Y004242D01*
X001312Y004242D02*
X001312Y004358D01*
X001566Y004358D01*
X001566Y004242D01*
X001566Y004303D02*
X001312Y004303D01*
X001312Y004046D02*
X001566Y004046D01*
X001312Y004046D02*
X001312Y004162D01*
X001566Y004162D01*
X001566Y004046D01*
X001566Y004107D02*
X001312Y004107D01*
X001312Y003965D02*
X001566Y003965D01*
X001566Y003849D01*
X001312Y003849D01*
X001312Y003965D01*
X001312Y003910D02*
X001566Y003910D01*
X001736Y003679D02*
X001736Y003425D01*
X001736Y003679D02*
X001852Y003679D01*
X001852Y003425D01*
X001736Y003425D01*
X001736Y003486D02*
X001852Y003486D01*
X001852Y003547D02*
X001736Y003547D01*
X001736Y003608D02*
X001852Y003608D01*
X001852Y003669D02*
X001736Y003669D01*
X001933Y003679D02*
X001933Y003425D01*
X001933Y003679D02*
X002049Y003679D01*
X002049Y003425D01*
X001933Y003425D01*
X001933Y003486D02*
X002049Y003486D01*
X002049Y003547D02*
X001933Y003547D01*
X001933Y003608D02*
X002049Y003608D01*
X002049Y003669D02*
X001933Y003669D01*
X002130Y003679D02*
X002130Y003425D01*
X002130Y003679D02*
X002246Y003679D01*
X002246Y003425D01*
X002130Y003425D01*
X002130Y003486D02*
X002246Y003486D01*
X002246Y003547D02*
X002130Y003547D01*
X002130Y003608D02*
X002246Y003608D01*
X002246Y003669D02*
X002130Y003669D01*
X002442Y003679D02*
X002442Y003425D01*
X002326Y003425D01*
X002326Y003679D01*
X002442Y003679D01*
X002442Y003486D02*
X002326Y003486D01*
X002326Y003547D02*
X002442Y003547D01*
X002442Y003608D02*
X002326Y003608D01*
X002326Y003669D02*
X002442Y003669D01*
X002639Y003679D02*
X002639Y003425D01*
X002523Y003425D01*
X002523Y003679D01*
X002639Y003679D01*
X002639Y003486D02*
X002523Y003486D01*
X002523Y003547D02*
X002639Y003547D01*
X002639Y003608D02*
X002523Y003608D01*
X002523Y003669D02*
X002639Y003669D01*
X002809Y003965D02*
X003063Y003965D01*
X003063Y003849D01*
X002809Y003849D01*
X002809Y003965D01*
X002809Y003910D02*
X003063Y003910D01*
X003063Y004162D02*
X002809Y004162D01*
X003063Y004162D02*
X003063Y004046D01*
X002809Y004046D01*
X002809Y004162D01*
X002809Y004107D02*
X003063Y004107D01*
X003063Y004242D02*
X002809Y004242D01*
X002809Y004358D01*
X003063Y004358D01*
X003063Y004242D01*
X003063Y004303D02*
X002809Y004303D01*
X002809Y004439D02*
X003063Y004439D01*
X002809Y004439D02*
X002809Y004555D01*
X003063Y004555D01*
X003063Y004439D01*
X003063Y004500D02*
X002809Y004500D01*
X002809Y004636D02*
X003063Y004636D01*
X002809Y004636D02*
X002809Y004752D01*
X003063Y004752D01*
X003063Y004636D01*
X003063Y004697D02*
X002809Y004697D01*
D13*
X000688Y006229D03*
D14*
X000688Y005229D03*
X000688Y004229D03*
X000688Y003229D03*
X003688Y003229D03*
X003688Y004229D03*
X003688Y005229D03*
X003688Y006229D03*
D15*
X002097Y003261D02*
X002097Y002943D01*
X001779Y002943D01*
X001779Y003261D01*
X002097Y003261D01*
X002097Y003078D02*
X001779Y003078D01*
X001779Y003213D02*
X002097Y003213D01*
X001407Y003261D02*
X001407Y002943D01*
X001089Y002943D01*
X001089Y003261D01*
X001407Y003261D01*
X001407Y003078D02*
X001089Y003078D01*
X001089Y003213D02*
X001407Y003213D01*
D16*
X002479Y003102D03*
X002991Y003102D03*
M02*
