G75*
%MOIN*%
%OFA0B0*%
%FSLAX24Y24*%
%IPPOS*%
%LPD*%
%AMOC8*
5,1,8,0,0,1.08239X$1,22.5*
%
%ADD10C,0.0000*%
D10*
X000188Y001050D02*
X004188Y001050D01*
X004188Y002300D01*
X003688Y002300D01*
X003688Y006658D01*
X000688Y006658D01*
X000688Y002300D01*
X000188Y002300D01*
X000188Y001050D01*
X000748Y002736D02*
X000750Y002752D01*
X000755Y002766D01*
X000764Y002779D01*
X000776Y002789D01*
X000790Y002797D01*
X000805Y002801D01*
X000821Y002801D01*
X000836Y002797D01*
X000850Y002789D01*
X000862Y002779D01*
X000871Y002766D01*
X000876Y002752D01*
X000878Y002736D01*
X000876Y002720D01*
X000871Y002706D01*
X000862Y002693D01*
X000850Y002683D01*
X000836Y002675D01*
X000821Y002671D01*
X000805Y002671D01*
X000790Y002675D01*
X000776Y002683D01*
X000764Y002693D01*
X000755Y002706D01*
X000750Y002720D01*
X000748Y002736D01*
X000998Y002736D02*
X001000Y002752D01*
X001005Y002766D01*
X001014Y002779D01*
X001026Y002789D01*
X001040Y002797D01*
X001055Y002801D01*
X001071Y002801D01*
X001086Y002797D01*
X001100Y002789D01*
X001112Y002779D01*
X001121Y002766D01*
X001126Y002752D01*
X001128Y002736D01*
X001126Y002720D01*
X001121Y002706D01*
X001112Y002693D01*
X001100Y002683D01*
X001086Y002675D01*
X001071Y002671D01*
X001055Y002671D01*
X001040Y002675D01*
X001026Y002683D01*
X001014Y002693D01*
X001005Y002706D01*
X001000Y002720D01*
X000998Y002736D01*
X001248Y002736D02*
X001250Y002752D01*
X001255Y002766D01*
X001264Y002779D01*
X001276Y002789D01*
X001290Y002797D01*
X001305Y002801D01*
X001321Y002801D01*
X001336Y002797D01*
X001350Y002789D01*
X001362Y002779D01*
X001371Y002766D01*
X001376Y002752D01*
X001378Y002736D01*
X001376Y002720D01*
X001371Y002706D01*
X001362Y002693D01*
X001350Y002683D01*
X001336Y002675D01*
X001321Y002671D01*
X001305Y002671D01*
X001290Y002675D01*
X001276Y002683D01*
X001264Y002693D01*
X001255Y002706D01*
X001250Y002720D01*
X001248Y002736D01*
X001498Y002736D02*
X001500Y002752D01*
X001505Y002766D01*
X001514Y002779D01*
X001526Y002789D01*
X001540Y002797D01*
X001555Y002801D01*
X001571Y002801D01*
X001586Y002797D01*
X001600Y002789D01*
X001612Y002779D01*
X001621Y002766D01*
X001626Y002752D01*
X001628Y002736D01*
X001626Y002720D01*
X001621Y002706D01*
X001612Y002693D01*
X001600Y002683D01*
X001586Y002675D01*
X001571Y002671D01*
X001555Y002671D01*
X001540Y002675D01*
X001526Y002683D01*
X001514Y002693D01*
X001505Y002706D01*
X001500Y002720D01*
X001498Y002736D01*
X001748Y002736D02*
X001750Y002752D01*
X001755Y002766D01*
X001764Y002779D01*
X001776Y002789D01*
X001790Y002797D01*
X001805Y002801D01*
X001821Y002801D01*
X001836Y002797D01*
X001850Y002789D01*
X001862Y002779D01*
X001871Y002766D01*
X001876Y002752D01*
X001878Y002736D01*
X001876Y002720D01*
X001871Y002706D01*
X001862Y002693D01*
X001850Y002683D01*
X001836Y002675D01*
X001821Y002671D01*
X001805Y002671D01*
X001790Y002675D01*
X001776Y002683D01*
X001764Y002693D01*
X001755Y002706D01*
X001750Y002720D01*
X001748Y002736D01*
X001998Y002736D02*
X002000Y002752D01*
X002005Y002766D01*
X002014Y002779D01*
X002026Y002789D01*
X002040Y002797D01*
X002055Y002801D01*
X002071Y002801D01*
X002086Y002797D01*
X002100Y002789D01*
X002112Y002779D01*
X002121Y002766D01*
X002126Y002752D01*
X002128Y002736D01*
X002126Y002720D01*
X002121Y002706D01*
X002112Y002693D01*
X002100Y002683D01*
X002086Y002675D01*
X002071Y002671D01*
X002055Y002671D01*
X002040Y002675D01*
X002026Y002683D01*
X002014Y002693D01*
X002005Y002706D01*
X002000Y002720D01*
X001998Y002736D01*
X002248Y002736D02*
X002250Y002752D01*
X002255Y002766D01*
X002264Y002779D01*
X002276Y002789D01*
X002290Y002797D01*
X002305Y002801D01*
X002321Y002801D01*
X002336Y002797D01*
X002350Y002789D01*
X002362Y002779D01*
X002371Y002766D01*
X002376Y002752D01*
X002378Y002736D01*
X002376Y002720D01*
X002371Y002706D01*
X002362Y002693D01*
X002350Y002683D01*
X002336Y002675D01*
X002321Y002671D01*
X002305Y002671D01*
X002290Y002675D01*
X002276Y002683D01*
X002264Y002693D01*
X002255Y002706D01*
X002250Y002720D01*
X002248Y002736D01*
X002498Y002736D02*
X002500Y002752D01*
X002505Y002766D01*
X002514Y002779D01*
X002526Y002789D01*
X002540Y002797D01*
X002555Y002801D01*
X002571Y002801D01*
X002586Y002797D01*
X002600Y002789D01*
X002612Y002779D01*
X002621Y002766D01*
X002626Y002752D01*
X002628Y002736D01*
X002626Y002720D01*
X002621Y002706D01*
X002612Y002693D01*
X002600Y002683D01*
X002586Y002675D01*
X002571Y002671D01*
X002555Y002671D01*
X002540Y002675D01*
X002526Y002683D01*
X002514Y002693D01*
X002505Y002706D01*
X002500Y002720D01*
X002498Y002736D01*
X002748Y002736D02*
X002750Y002752D01*
X002755Y002766D01*
X002764Y002779D01*
X002776Y002789D01*
X002790Y002797D01*
X002805Y002801D01*
X002821Y002801D01*
X002836Y002797D01*
X002850Y002789D01*
X002862Y002779D01*
X002871Y002766D01*
X002876Y002752D01*
X002878Y002736D01*
X002876Y002720D01*
X002871Y002706D01*
X002862Y002693D01*
X002850Y002683D01*
X002836Y002675D01*
X002821Y002671D01*
X002805Y002671D01*
X002790Y002675D01*
X002776Y002683D01*
X002764Y002693D01*
X002755Y002706D01*
X002750Y002720D01*
X002748Y002736D01*
X002998Y002736D02*
X003000Y002752D01*
X003005Y002766D01*
X003014Y002779D01*
X003026Y002789D01*
X003040Y002797D01*
X003055Y002801D01*
X003071Y002801D01*
X003086Y002797D01*
X003100Y002789D01*
X003112Y002779D01*
X003121Y002766D01*
X003126Y002752D01*
X003128Y002736D01*
X003126Y002720D01*
X003121Y002706D01*
X003112Y002693D01*
X003100Y002683D01*
X003086Y002675D01*
X003071Y002671D01*
X003055Y002671D01*
X003040Y002675D01*
X003026Y002683D01*
X003014Y002693D01*
X003005Y002706D01*
X003000Y002720D01*
X002998Y002736D01*
X003248Y002736D02*
X003250Y002752D01*
X003255Y002766D01*
X003264Y002779D01*
X003276Y002789D01*
X003290Y002797D01*
X003305Y002801D01*
X003321Y002801D01*
X003336Y002797D01*
X003350Y002789D01*
X003362Y002779D01*
X003371Y002766D01*
X003376Y002752D01*
X003378Y002736D01*
X003376Y002720D01*
X003371Y002706D01*
X003362Y002693D01*
X003350Y002683D01*
X003336Y002675D01*
X003321Y002671D01*
X003305Y002671D01*
X003290Y002675D01*
X003276Y002683D01*
X003264Y002693D01*
X003255Y002706D01*
X003250Y002720D01*
X003248Y002736D01*
X003498Y002736D02*
X003500Y002752D01*
X003505Y002766D01*
X003514Y002779D01*
X003526Y002789D01*
X003540Y002797D01*
X003555Y002801D01*
X003571Y002801D01*
X003586Y002797D01*
X003600Y002789D01*
X003612Y002779D01*
X003621Y002766D01*
X003626Y002752D01*
X003628Y002736D01*
X003626Y002720D01*
X003621Y002706D01*
X003612Y002693D01*
X003600Y002683D01*
X003586Y002675D01*
X003571Y002671D01*
X003555Y002671D01*
X003540Y002675D01*
X003526Y002683D01*
X003514Y002693D01*
X003505Y002706D01*
X003500Y002720D01*
X003498Y002736D01*
M02*
