G75*
%MOIN*%
%OFA0B0*%
%FSLAX24Y24*%
%IPPOS*%
%LPD*%
%AMOC8*
5,1,8,0,0,1.08239X$1,22.5*
%
%ADD10R,0.0197X0.0197*%
%ADD11R,0.0190X0.0080*%
%ADD12R,0.0080X0.0190*%
%ADD13C,0.0118*%
%ADD14R,0.0276X0.0354*%
%ADD15R,0.0394X0.0394*%
D10*
X002188Y004300D03*
D11*
X002918Y004300D03*
X002918Y004105D03*
X002918Y003905D03*
X002918Y004495D03*
X002918Y004695D03*
X001458Y004695D03*
X001458Y004495D03*
X001458Y004300D03*
X001458Y004105D03*
X001458Y003905D03*
D12*
X001793Y003570D03*
X001993Y003570D03*
X002188Y003570D03*
X002383Y003570D03*
X002583Y003570D03*
X002583Y005030D03*
X002383Y005030D03*
X002188Y005030D03*
X001993Y005030D03*
X001793Y005030D03*
D13*
X001386Y003240D02*
X001386Y002964D01*
X001110Y002964D01*
X001110Y003240D01*
X001386Y003240D01*
X001386Y003081D02*
X001110Y003081D01*
X001110Y003198D02*
X001386Y003198D01*
X002076Y003240D02*
X002076Y002964D01*
X001800Y002964D01*
X001800Y003240D01*
X002076Y003240D01*
X002076Y003081D02*
X001800Y003081D01*
X001800Y003198D02*
X002076Y003198D01*
D14*
X002479Y003102D03*
X002991Y003102D03*
D15*
X003010Y005641D03*
X003010Y006310D03*
X001435Y006310D03*
X001435Y005641D03*
M02*
