G75*
%MOIN*%
%OFA0B0*%
%FSLAX24Y24*%
%IPPOS*%
%LPD*%
%AMOC8*
5,1,8,0,0,1.08239X$1,22.5*
%
%ADD10R,0.0394X0.0394*%
%ADD11C,0.0041*%
%ADD12R,0.0600X0.0600*%
%ADD13OC8,0.0600*%
%ADD14C,0.0118*%
%ADD15R,0.0276X0.0354*%
%ADD16C,0.0060*%
%ADD17OC8,0.0270*%
D10*
X002188Y004300D03*
X001435Y005641D03*
X001435Y006310D03*
X003010Y006310D03*
X003010Y005641D03*
D11*
X002620Y005156D02*
X002620Y004940D01*
X002542Y004940D01*
X002542Y005156D01*
X002620Y005156D01*
X002620Y004980D02*
X002542Y004980D01*
X002542Y005020D02*
X002620Y005020D01*
X002620Y005060D02*
X002542Y005060D01*
X002542Y005100D02*
X002620Y005100D01*
X002620Y005140D02*
X002542Y005140D01*
X002345Y005156D02*
X002345Y004940D01*
X002345Y005156D02*
X002423Y005156D01*
X002423Y004940D01*
X002345Y004940D01*
X002345Y004980D02*
X002423Y004980D01*
X002423Y005020D02*
X002345Y005020D01*
X002345Y005060D02*
X002423Y005060D01*
X002423Y005100D02*
X002345Y005100D01*
X002345Y005140D02*
X002423Y005140D01*
X002227Y005156D02*
X002227Y004940D01*
X002149Y004940D01*
X002149Y005156D01*
X002227Y005156D01*
X002227Y004980D02*
X002149Y004980D01*
X002149Y005020D02*
X002227Y005020D01*
X002227Y005060D02*
X002149Y005060D01*
X002149Y005100D02*
X002227Y005100D01*
X002227Y005140D02*
X002149Y005140D01*
X002030Y005156D02*
X002030Y004940D01*
X001952Y004940D01*
X001952Y005156D01*
X002030Y005156D01*
X002030Y004980D02*
X001952Y004980D01*
X001952Y005020D02*
X002030Y005020D01*
X002030Y005060D02*
X001952Y005060D01*
X001952Y005100D02*
X002030Y005100D01*
X002030Y005140D02*
X001952Y005140D01*
X001833Y005156D02*
X001833Y004940D01*
X001755Y004940D01*
X001755Y005156D01*
X001833Y005156D01*
X001833Y004980D02*
X001755Y004980D01*
X001755Y005020D02*
X001833Y005020D01*
X001833Y005060D02*
X001755Y005060D01*
X001755Y005100D02*
X001833Y005100D01*
X001833Y005140D02*
X001755Y005140D01*
X001547Y004655D02*
X001331Y004655D01*
X001331Y004733D01*
X001547Y004733D01*
X001547Y004655D01*
X001547Y004695D02*
X001331Y004695D01*
X001331Y004458D02*
X001547Y004458D01*
X001331Y004458D02*
X001331Y004536D01*
X001547Y004536D01*
X001547Y004458D01*
X001547Y004498D02*
X001331Y004498D01*
X001331Y004261D02*
X001547Y004261D01*
X001331Y004261D02*
X001331Y004339D01*
X001547Y004339D01*
X001547Y004261D01*
X001547Y004301D02*
X001331Y004301D01*
X001331Y004065D02*
X001547Y004065D01*
X001331Y004065D02*
X001331Y004143D01*
X001547Y004143D01*
X001547Y004065D01*
X001547Y004105D02*
X001331Y004105D01*
X001331Y003946D02*
X001547Y003946D01*
X001547Y003868D01*
X001331Y003868D01*
X001331Y003946D01*
X001331Y003908D02*
X001547Y003908D01*
X001755Y003660D02*
X001755Y003444D01*
X001755Y003660D02*
X001833Y003660D01*
X001833Y003444D01*
X001755Y003444D01*
X001755Y003484D02*
X001833Y003484D01*
X001833Y003524D02*
X001755Y003524D01*
X001755Y003564D02*
X001833Y003564D01*
X001833Y003604D02*
X001755Y003604D01*
X001755Y003644D02*
X001833Y003644D01*
X001952Y003660D02*
X001952Y003444D01*
X001952Y003660D02*
X002030Y003660D01*
X002030Y003444D01*
X001952Y003444D01*
X001952Y003484D02*
X002030Y003484D01*
X002030Y003524D02*
X001952Y003524D01*
X001952Y003564D02*
X002030Y003564D01*
X002030Y003604D02*
X001952Y003604D01*
X001952Y003644D02*
X002030Y003644D01*
X002149Y003660D02*
X002149Y003444D01*
X002149Y003660D02*
X002227Y003660D01*
X002227Y003444D01*
X002149Y003444D01*
X002149Y003484D02*
X002227Y003484D01*
X002227Y003524D02*
X002149Y003524D01*
X002149Y003564D02*
X002227Y003564D01*
X002227Y003604D02*
X002149Y003604D01*
X002149Y003644D02*
X002227Y003644D01*
X002423Y003660D02*
X002423Y003444D01*
X002345Y003444D01*
X002345Y003660D01*
X002423Y003660D01*
X002423Y003484D02*
X002345Y003484D01*
X002345Y003524D02*
X002423Y003524D01*
X002423Y003564D02*
X002345Y003564D01*
X002345Y003604D02*
X002423Y003604D01*
X002423Y003644D02*
X002345Y003644D01*
X002620Y003660D02*
X002620Y003444D01*
X002542Y003444D01*
X002542Y003660D01*
X002620Y003660D01*
X002620Y003484D02*
X002542Y003484D01*
X002542Y003524D02*
X002620Y003524D01*
X002620Y003564D02*
X002542Y003564D01*
X002542Y003604D02*
X002620Y003604D01*
X002620Y003644D02*
X002542Y003644D01*
X002828Y003946D02*
X003044Y003946D01*
X003044Y003868D01*
X002828Y003868D01*
X002828Y003946D01*
X002828Y003908D02*
X003044Y003908D01*
X003044Y004143D02*
X002828Y004143D01*
X003044Y004143D02*
X003044Y004065D01*
X002828Y004065D01*
X002828Y004143D01*
X002828Y004105D02*
X003044Y004105D01*
X003044Y004261D02*
X002828Y004261D01*
X002828Y004339D01*
X003044Y004339D01*
X003044Y004261D01*
X003044Y004301D02*
X002828Y004301D01*
X002828Y004458D02*
X003044Y004458D01*
X002828Y004458D02*
X002828Y004536D01*
X003044Y004536D01*
X003044Y004458D01*
X003044Y004498D02*
X002828Y004498D01*
X002828Y004655D02*
X003044Y004655D01*
X002828Y004655D02*
X002828Y004733D01*
X003044Y004733D01*
X003044Y004655D01*
X003044Y004695D02*
X002828Y004695D01*
D12*
X000688Y006229D03*
D13*
X000688Y005229D03*
X000688Y004229D03*
X000688Y003229D03*
X003688Y003229D03*
X003688Y004229D03*
X003688Y005229D03*
X003688Y006229D03*
D14*
X002076Y003240D02*
X002076Y002964D01*
X001800Y002964D01*
X001800Y003240D01*
X002076Y003240D01*
X002076Y003081D02*
X001800Y003081D01*
X001800Y003198D02*
X002076Y003198D01*
X001386Y003240D02*
X001386Y002964D01*
X001110Y002964D01*
X001110Y003240D01*
X001386Y003240D01*
X001386Y003081D02*
X001110Y003081D01*
X001110Y003198D02*
X001386Y003198D01*
D15*
X002479Y003102D03*
X002991Y003102D03*
D16*
X001575Y003072D02*
X001575Y002981D01*
X001611Y002981D01*
X001651Y002965D01*
X001651Y003301D01*
X001697Y003347D01*
X001645Y003399D01*
X001645Y003705D01*
X001710Y003770D01*
X001878Y003770D01*
X001892Y003756D01*
X001906Y003770D01*
X002047Y003770D01*
X002057Y003780D01*
X002091Y003800D01*
X002129Y003810D01*
X002187Y003810D01*
X002187Y003552D01*
X002188Y003552D01*
X002188Y003810D01*
X002246Y003810D01*
X002284Y003800D01*
X002318Y003780D01*
X002328Y003770D01*
X002469Y003770D01*
X002483Y003756D01*
X002497Y003770D01*
X002549Y003770D01*
X002528Y003792D01*
X002528Y004075D01*
X002598Y004145D01*
X002676Y004224D01*
X002718Y004224D01*
X002718Y004385D01*
X002732Y004399D01*
X002718Y004413D01*
X002718Y004581D01*
X002732Y004596D01*
X002718Y004610D01*
X002718Y004778D01*
X002782Y004843D01*
X002816Y004843D01*
X002816Y005127D01*
X002466Y005454D01*
X002340Y005454D01*
X002208Y005586D01*
X002208Y005772D01*
X002340Y005904D01*
X002526Y005904D01*
X002658Y005772D01*
X002658Y005603D01*
X002683Y005580D01*
X002683Y005611D01*
X002980Y005611D01*
X002980Y005671D01*
X002980Y005968D01*
X002796Y005968D01*
X002763Y005959D01*
X002733Y005942D01*
X002709Y005917D01*
X002692Y005888D01*
X002683Y005855D01*
X002683Y005671D01*
X002980Y005671D01*
X003040Y005671D01*
X003040Y005968D01*
X003224Y005968D01*
X003257Y005959D01*
X003287Y005942D01*
X003311Y005917D01*
X003324Y005895D01*
X003324Y006041D01*
X003298Y006068D01*
X003298Y006391D01*
X003385Y006478D01*
X003297Y006478D01*
X003297Y006076D01*
X003298Y006076D01*
X003297Y006076D02*
X003244Y006023D01*
X002776Y006023D01*
X002723Y006076D01*
X002597Y006076D01*
X002656Y006135D02*
X002723Y006135D01*
X002723Y006193D02*
X002658Y006193D01*
X002658Y006137D02*
X002658Y006323D01*
X002526Y006455D01*
X002340Y006455D01*
X002235Y006350D01*
X001924Y006350D01*
X001854Y006280D01*
X001722Y006148D01*
X001722Y006478D01*
X002723Y006478D01*
X002723Y006076D01*
X002658Y006137D02*
X002526Y006005D01*
X002340Y006005D01*
X002235Y006110D01*
X002023Y006110D01*
X001935Y006022D01*
X001935Y005348D01*
X001865Y005278D01*
X001854Y005266D01*
X001878Y005266D01*
X001892Y005252D01*
X001906Y005266D01*
X002075Y005266D01*
X002089Y005252D01*
X002103Y005266D01*
X002272Y005266D01*
X002286Y005252D01*
X002300Y005266D01*
X002469Y005266D01*
X002483Y005252D01*
X002497Y005266D01*
X002665Y005266D01*
X002730Y005202D01*
X002730Y004895D01*
X002665Y004830D01*
X002497Y004830D01*
X002483Y004845D01*
X002469Y004830D01*
X002300Y004830D01*
X002286Y004845D01*
X002272Y004830D01*
X002103Y004830D01*
X002089Y004845D01*
X002075Y004830D01*
X001906Y004830D01*
X001892Y004845D01*
X001878Y004830D01*
X001859Y004830D01*
X001901Y004788D01*
X001971Y004718D01*
X001971Y004627D01*
X001974Y004627D01*
X002158Y004627D01*
X002158Y004330D01*
X002157Y004330D02*
X002157Y004270D01*
X001861Y004270D01*
X001861Y004086D01*
X001870Y004053D01*
X001887Y004024D01*
X001911Y004000D01*
X001940Y003982D01*
X001974Y003974D01*
X002158Y003974D01*
X002158Y004270D01*
X002217Y004270D01*
X002217Y003974D01*
X002401Y003974D01*
X002435Y003982D01*
X002464Y004000D01*
X002488Y004024D01*
X002505Y004053D01*
X002514Y004086D01*
X002514Y004270D01*
X002218Y004270D01*
X002218Y004330D01*
X002514Y004330D01*
X002514Y004514D01*
X002505Y004547D01*
X002488Y004577D01*
X002464Y004601D01*
X002435Y004618D01*
X002401Y004627D01*
X002217Y004627D01*
X002217Y004330D01*
X002158Y004330D01*
X002157Y004330D02*
X001861Y004330D01*
X001861Y004447D01*
X001778Y004364D01*
X001657Y004364D01*
X001657Y004216D01*
X001643Y004202D01*
X001657Y004188D01*
X001657Y004019D01*
X001643Y004005D01*
X001657Y003991D01*
X001657Y003822D01*
X001593Y003758D01*
X001286Y003758D01*
X001257Y003787D01*
X000960Y003787D01*
X000878Y003869D01*
X000868Y003858D01*
X000868Y003657D01*
X001096Y003429D01*
X001218Y003429D01*
X001218Y003132D01*
X001278Y003132D01*
X001575Y003132D01*
X001575Y003264D01*
X001562Y003313D01*
X001537Y003356D01*
X001502Y003391D01*
X001459Y003416D01*
X001410Y003429D01*
X001278Y003429D01*
X001278Y003132D01*
X001278Y003072D01*
X001575Y003072D01*
X001575Y003034D02*
X001651Y003034D01*
X001651Y002976D02*
X001626Y002976D01*
X001651Y003093D02*
X001278Y003093D01*
X001248Y003102D02*
X000815Y003102D01*
X000688Y003229D01*
X000906Y003619D02*
X001645Y003619D01*
X001645Y003561D02*
X000964Y003561D01*
X001023Y003502D02*
X001645Y003502D01*
X001645Y003444D02*
X001081Y003444D01*
X001218Y003385D02*
X001278Y003385D01*
X001278Y003327D02*
X001218Y003327D01*
X001218Y003268D02*
X001278Y003268D01*
X001278Y003210D02*
X001218Y003210D01*
X001218Y003151D02*
X001278Y003151D01*
X001507Y003385D02*
X001659Y003385D01*
X001677Y003327D02*
X001554Y003327D01*
X001574Y003268D02*
X001651Y003268D01*
X001651Y003210D02*
X001575Y003210D01*
X001575Y003151D02*
X001651Y003151D01*
X001900Y003166D02*
X001938Y003102D01*
X002479Y003102D01*
X002188Y003561D02*
X002187Y003561D01*
X002187Y003619D02*
X002188Y003619D01*
X002187Y003678D02*
X002188Y003678D01*
X002187Y003736D02*
X002188Y003736D01*
X002187Y003795D02*
X002188Y003795D01*
X002081Y003795D02*
X001629Y003795D01*
X001657Y003853D02*
X002528Y003853D01*
X002528Y003795D02*
X002294Y003795D01*
X002217Y004029D02*
X002158Y004029D01*
X002158Y004087D02*
X002217Y004087D01*
X002217Y004146D02*
X002158Y004146D01*
X002158Y004204D02*
X002217Y004204D01*
X002217Y004263D02*
X002158Y004263D01*
X002157Y004321D02*
X001657Y004321D01*
X001657Y004263D02*
X001861Y004263D01*
X001861Y004204D02*
X001645Y004204D01*
X001657Y004146D02*
X001861Y004146D01*
X001861Y004087D02*
X001657Y004087D01*
X001657Y004029D02*
X001884Y004029D01*
X001657Y003970D02*
X002528Y003970D01*
X002528Y003912D02*
X001657Y003912D01*
X001675Y003736D02*
X000868Y003736D01*
X000868Y003678D02*
X001645Y003678D01*
X001439Y003907D02*
X001010Y003907D01*
X000688Y004229D01*
X000868Y003853D02*
X000894Y003853D01*
X000868Y003795D02*
X000952Y003795D01*
X001178Y004484D02*
X001729Y004484D01*
X001851Y004607D01*
X001851Y004668D01*
X001545Y004974D01*
X001545Y005128D01*
X001815Y005398D01*
X001815Y006071D01*
X001974Y006230D01*
X002433Y006230D01*
X002312Y006427D02*
X001722Y006427D01*
X001722Y006369D02*
X002253Y006369D01*
X002269Y006076D02*
X001989Y006076D01*
X001935Y006018D02*
X002327Y006018D01*
X002337Y005901D02*
X001935Y005901D01*
X001935Y005959D02*
X002764Y005959D01*
X002699Y005901D02*
X002530Y005901D01*
X002588Y005842D02*
X002683Y005842D01*
X002683Y005784D02*
X002647Y005784D01*
X002658Y005725D02*
X002683Y005725D01*
X002658Y005667D02*
X002980Y005667D01*
X003010Y005641D02*
X003010Y005622D01*
X003199Y005811D01*
X003199Y005863D01*
X003256Y005959D02*
X003324Y005959D01*
X003320Y005901D02*
X003324Y005901D01*
X003324Y006018D02*
X002539Y006018D01*
X002658Y006252D02*
X002723Y006252D01*
X002723Y006310D02*
X002658Y006310D01*
X002613Y006369D02*
X002723Y006369D01*
X002723Y006427D02*
X002554Y006427D01*
X002278Y005842D02*
X001935Y005842D01*
X001935Y005784D02*
X002220Y005784D01*
X002208Y005725D02*
X001935Y005725D01*
X001935Y005667D02*
X002208Y005667D01*
X002208Y005608D02*
X001935Y005608D01*
X001935Y005550D02*
X002244Y005550D01*
X002303Y005491D02*
X001935Y005491D01*
X001935Y005433D02*
X002489Y005433D01*
X002552Y005374D02*
X001935Y005374D01*
X001903Y005316D02*
X002614Y005316D01*
X002675Y005257D02*
X002677Y005257D01*
X002730Y005199D02*
X002739Y005199D01*
X002730Y005140D02*
X002802Y005140D01*
X002816Y005082D02*
X002730Y005082D01*
X002730Y005023D02*
X002816Y005023D01*
X002816Y004965D02*
X002730Y004965D01*
X002730Y004906D02*
X002816Y004906D01*
X002816Y004848D02*
X002682Y004848D01*
X002728Y004789D02*
X001900Y004789D01*
X001959Y004731D02*
X002718Y004731D01*
X002718Y004672D02*
X001971Y004672D01*
X001861Y004438D02*
X001852Y004438D01*
X001861Y004380D02*
X001794Y004380D01*
X002158Y004380D02*
X002217Y004380D01*
X002217Y004438D02*
X002158Y004438D01*
X002158Y004497D02*
X002217Y004497D01*
X002217Y004555D02*
X002158Y004555D01*
X002158Y004614D02*
X002217Y004614D01*
X002218Y004321D02*
X002718Y004321D01*
X002718Y004263D02*
X002514Y004263D01*
X002514Y004204D02*
X002657Y004204D01*
X002598Y004146D02*
X002514Y004146D01*
X002514Y004087D02*
X002540Y004087D01*
X002528Y004029D02*
X002491Y004029D01*
X002648Y004025D02*
X002648Y003841D01*
X002954Y003535D01*
X002954Y003139D01*
X002991Y003102D01*
X003688Y003300D02*
X003081Y003907D01*
X002936Y003907D01*
X002936Y004104D02*
X002726Y004104D01*
X002648Y004025D01*
X002718Y004380D02*
X002514Y004380D01*
X002514Y004438D02*
X002718Y004438D01*
X002718Y004497D02*
X002514Y004497D01*
X002501Y004555D02*
X002718Y004555D01*
X002718Y004614D02*
X002443Y004614D01*
X002478Y005257D02*
X002488Y005257D01*
X002291Y005257D02*
X002281Y005257D01*
X002094Y005257D02*
X002084Y005257D01*
X001897Y005257D02*
X001887Y005257D01*
X001439Y004694D02*
X001313Y004760D01*
X001313Y004925D01*
X001125Y005113D01*
X001125Y005363D01*
X000938Y005550D01*
X000938Y005979D01*
X000688Y006229D01*
X000867Y006229D01*
X000938Y006300D01*
X001425Y006300D01*
X001435Y006310D01*
X001722Y006310D02*
X001884Y006310D01*
X001826Y006252D02*
X001722Y006252D01*
X001722Y006193D02*
X001767Y006193D01*
X002433Y005679D02*
X002439Y005642D01*
X002470Y005614D01*
X002936Y005179D01*
X002936Y004694D01*
X002936Y004674D01*
X003260Y004999D01*
X003260Y005357D01*
X003444Y005541D01*
X003444Y006046D01*
X003627Y006229D01*
X003688Y006229D01*
X003334Y006427D02*
X003297Y006427D01*
X003297Y006369D02*
X003298Y006369D01*
X003297Y006310D02*
X003298Y006310D01*
X003297Y006252D02*
X003298Y006252D01*
X003297Y006193D02*
X003298Y006193D01*
X003297Y006135D02*
X003298Y006135D01*
X003040Y005959D02*
X002980Y005959D01*
X002980Y005901D02*
X003040Y005901D01*
X003040Y005842D02*
X002980Y005842D01*
X002980Y005784D02*
X003040Y005784D01*
X003040Y005725D02*
X002980Y005725D01*
X003010Y005622D02*
X002938Y005550D01*
X002980Y005550D02*
X003040Y005550D01*
X003040Y005608D02*
X002980Y005608D01*
X002980Y005611D02*
X003040Y005611D01*
X003040Y005314D01*
X003140Y005314D01*
X003140Y005048D01*
X003056Y004964D01*
X003056Y005132D01*
X003057Y005134D01*
X003056Y005182D01*
X003056Y005229D01*
X003054Y005231D01*
X003054Y005233D01*
X003019Y005266D01*
X002985Y005299D01*
X002983Y005299D01*
X002968Y005314D01*
X002980Y005314D01*
X002980Y005611D01*
X002980Y005491D02*
X003040Y005491D01*
X003040Y005433D02*
X002980Y005433D01*
X002980Y005374D02*
X003040Y005374D01*
X003040Y005316D02*
X002980Y005316D01*
X003028Y005257D02*
X003140Y005257D01*
X003140Y005199D02*
X003056Y005199D01*
X003057Y005140D02*
X003140Y005140D01*
X003140Y005082D02*
X003056Y005082D01*
X003056Y005023D02*
X003115Y005023D01*
X003056Y004965D02*
X003056Y004965D01*
X003438Y004800D02*
X003135Y004497D01*
X002936Y004497D01*
X002936Y004104D02*
X003562Y004104D01*
X003688Y004229D01*
X003438Y004800D02*
X003438Y004979D01*
X003688Y005229D01*
X002683Y005608D02*
X002658Y005608D01*
X001439Y004497D02*
X001195Y004497D01*
X001178Y004484D01*
X001116Y004546D01*
X001116Y004800D01*
X000688Y005229D01*
X003688Y003300D02*
X003688Y003229D01*
D17*
X002433Y005679D03*
X002433Y006230D03*
X003199Y005863D03*
M02*
